<svg width="600" height="601" viewBox="0 0 600 601" fill="none" xmlns="http://www.w3.org/2000/svg">
<path fill-rule="evenodd" clip-rule="evenodd" d="M134.867 573.136C125.107 579.531 127.375 596.2 138.458 599.535C142.789 600.838 156.172 600.047 169.301 597.712C212.393 590.048 251.527 560.366 271.668 520.071C278.58 506.24 284.723 484.211 284.723 473.248C284.723 461.888 271.767 454.891 262.453 461.22C257.915 464.303 256.831 466.87 253.11 483.328C250.125 496.536 241.729 514.724 233.76 525.246C222.209 540.497 203.487 554.998 186.345 561.971C175.047 566.567 164.529 568.968 150.165 570.23C142.561 570.898 136.536 572.042 134.867 573.136ZM442.078 585.487C442.078 591.591 447.255 598.275 453.282 599.951C459.334 601.634 485.822 598.045 500.496 593.554C537.56 582.209 572.35 550.83 587.998 514.632C608.091 468.151 602.712 415.884 573.536 374.114C561.329 356.638 540.044 338.51 519.925 328.454C506.407 321.697 484.082 315.399 473.649 315.399C464.224 315.399 458.518 321.179 458.518 330.724C458.518 334.683 459.254 336.333 462.441 339.521C464.599 341.678 467.638 343.69 469.193 343.991C485.531 347.149 491.158 348.572 498.044 351.286C533.895 365.416 560.503 396.952 568.26 434.507C570.661 446.133 570.74 468.311 568.42 479.213C557.608 529.998 516.856 565.996 465.502 570.124C458.38 570.697 451.525 571.915 449.485 572.97C445.744 574.904 442.078 581.099 442.078 585.487ZM36.1543 552.08C41.1279 557.494 45.5836 561.223 47.8972 561.908C55.1385 564.049 61.8357 560.822 65.5178 553.416C68.6199 547.177 67.3049 543.39 58.2736 532.553C44.1835 515.645 36.4228 500.255 32.0703 480.59C30.0843 471.617 29.7827 467.074 30.2636 453.379C30.8918 435.485 32.602 427.234 38.6742 412.802C49.3236 387.492 69.1531 366.927 94.6229 354.778C104.136 350.24 112.574 347.73 130.783 344.02C132.339 343.703 135.378 341.678 137.536 339.521C140.723 336.333 141.459 334.683 141.459 330.724C141.459 321.179 135.753 315.399 126.328 315.399C115.895 315.399 93.5697 321.697 80.0512 328.454C46.7628 345.092 20.8485 374.283 8.24201 409.343C-9.31384 458.167 1.7206 514.595 36.1543 552.08ZM335.563 532.879C342.335 543.711 354.353 558.008 359.143 560.928C363.843 563.794 370.094 563.779 374.477 560.889C379.029 557.889 380.922 554.241 380.973 548.376C381.019 543.075 379.892 541.207 368.882 528.326C357.199 514.656 347.485 491.922 344.047 470.202C343.582 467.262 342.054 464.738 339.25 462.276C335.814 459.259 334.155 458.663 329.187 458.663C323.943 458.663 322.748 459.154 319.082 462.82C314.925 466.977 314.925 466.977 315.6 476.031C316.877 493.166 324.748 515.579 335.563 532.879ZM108.774 499.506C116.502 505.261 119.177 506.67 127.367 509.303C140.249 513.445 157.7 511.575 169.642 504.773C172.548 503.117 189.194 487.682 206.632 470.473C243.004 434.577 249.601 429.6 270.011 422.659C294.515 414.324 323.294 417.082 346.847 430.021C358.469 436.406 361.433 438.994 394.519 471.644C411.311 488.216 427.428 503.144 430.335 504.818C458.267 520.905 496.179 507.089 507.929 476.541C513.286 462.614 511.904 443.016 504.684 430.509C502.997 427.587 487.783 411.192 470.876 394.077C433.311 356.049 427.012 347.257 420.818 324.207C417.27 311 417.27 289.267 420.818 276.061C427.012 253.01 433.311 244.218 470.876 206.19C487.783 189.075 502.989 172.693 504.666 169.787C520.77 141.886 506.946 103.944 476.396 92.1932C462.464 86.8342 442.855 88.219 430.364 95.4441C427.441 97.1344 410.783 112.588 393.345 129.785C355.621 166.988 348.88 171.902 326.184 178.75C317.192 181.463 313.771 181.871 299.988 181.871C286.206 181.871 282.785 181.463 273.793 178.75C251.021 171.88 244.374 167.015 206.045 129.171C187.6 110.959 171.738 96.2691 169.055 94.9145C142.208 81.3593 110.01 90.5027 95.3528 115.844C86.5627 131.042 86.3282 152.482 94.7693 169.2C96.1239 171.883 110.814 187.745 129.026 206.19C167.234 244.888 172.855 252.718 179.179 276.061C182.763 289.287 182.763 310.98 179.179 324.207C172.871 347.488 167.182 355.443 129.632 393.49C112.421 410.928 96.9892 427.574 95.3393 430.48C82.6327 452.862 88.8189 484.646 108.774 499.506ZM191.22 444.859C168.105 467.654 156.641 478.139 153.05 479.768C143.348 484.171 133.299 482.271 125.607 474.579C117.794 466.766 115.926 456.831 120.41 446.945C122.115 443.188 131.769 432.623 154.214 409.955C171.764 392.231 187.66 375.114 190.227 371.178C216.027 331.615 218.877 283.175 197.822 242.118C190.296 227.445 186.355 222.769 153.616 189.683C121.684 157.411 118.046 152.74 118.005 143.953C117.938 129.617 129.563 118.051 143.944 118.144C152.667 118.201 157.458 121.942 189.605 153.798C222.56 186.456 227.284 190.442 241.887 197.91C276.923 215.827 317.1 216.649 353.79 200.198C368.956 193.398 377.321 186.556 409.81 154.373C432.49 131.906 443.04 122.261 446.8 120.556C467.851 111.006 489.105 132.283 479.557 153.347C477.834 157.147 468.475 167.374 446.241 189.75C406.834 229.409 399.839 239.671 391.854 269.543C389.214 279.419 388.856 283.07 388.856 300.134C388.856 317.238 389.21 320.836 391.879 330.823C399.789 360.428 407.057 371.083 446.241 410.517C478.199 442.68 481.921 447.436 481.978 456.178C482.071 470.463 470.318 482.216 456.033 482.123C447.425 482.067 442.75 478.383 408.757 444.859C372.432 409.036 366.725 404.691 345.536 396.733C328.317 390.265 320.431 388.91 299.988 388.91C279.545 388.91 271.66 390.265 254.441 396.733C233.252 404.691 227.544 409.036 191.22 444.859ZM8.24201 190.924C25.0538 237.679 64.4618 272.515 112.442 283.033C122.641 285.269 130.488 285.238 134.366 282.947C141.524 278.719 143.523 269.489 138.798 262.478C135.83 258.074 133.184 256.964 116.799 253.25C76.3701 244.088 44.0046 212.188 32.7138 170.374C29.4017 158.109 29.6579 127.019 33.1761 114.262C46.1627 67.1711 86.0671 34.0341 134.474 30.1428C148.759 28.9946 153.243 27.173 155.979 21.4069C158.386 16.335 158.399 13.2542 156.036 8.27453C152.347 0.499561 146.561 -1.16457 129.676 0.693382C105.322 3.37325 83.3833 11.0716 64.3531 23.6156C50.9515 32.4496 32.3044 51.0966 23.4705 64.4983C-1.00285 101.626 -6.74022 149.257 8.24201 190.924ZM460.808 262.925C456.753 269.575 458.795 278.7 465.277 282.894C472.066 287.288 496.535 282.629 517.102 273.026C552.431 256.532 580.457 225.137 592.794 188.235C609.068 139.556 597.201 83.4507 563.03 47.5179C557.311 41.5045 555.306 39.3955 552.883 38.6573C551.574 38.2586 550.143 38.2597 547.94 38.2614C542.364 38.2658 541.209 38.7154 537.665 42.2589C534.171 45.7529 533.672 46.9974 533.672 52.2246C533.672 57.7414 534.154 58.7654 539.978 65.6305C553.829 81.9577 561.504 95.8201 566.775 114.03C569.125 122.145 569.49 126.002 569.478 142.778C569.47 158.051 568.998 163.895 567.253 170.374C555.681 213.32 523.642 244.207 480.614 253.9C465.118 257.391 463.822 257.981 460.808 262.925ZM253.105 116.944C256.818 133.329 257.928 135.975 262.333 138.943C269.456 143.743 278.576 141.666 282.959 134.245C288.436 124.973 278.918 90.6305 264.429 67.3878C257.609 56.4484 244.608 41.1848 240.142 38.8753C229.184 33.209 216.16 42.7527 218.549 54.698C218.936 56.6289 222.414 61.7803 226.28 66.1455C230.146 70.5107 234.88 76.355 236.801 79.1328C243.037 88.1488 250.504 105.465 253.105 116.944ZM317.021 113.395C313.76 128.899 315.341 136.088 322.827 139.782C327.948 142.31 333.087 142.013 337.686 138.924C342.023 136.01 342.895 133.878 346.922 116.357C349.796 103.849 358.431 85.3319 366.145 75.1292C386.256 48.5335 415.981 32.5496 449.994 30.0423C463.262 29.0642 466.684 27.6078 469.78 21.6206C472.354 16.6437 471.418 8.53133 467.831 4.71268C463.632 0.242689 457.9 -0.750023 444.331 0.642414C423.598 2.7701 409.642 6.85452 391.583 16.0804C353.274 35.6518 325.844 71.4516 317.021 113.395Z" fill="black"/>
</svg>
