<svg width="3939" height="1421" viewBox="0 0 3939 1421" fill="none" xmlns="http://www.w3.org/2000/svg">
<path d="M142.218 973.7C116.418 973.7 96.0176 966.2 81.0176 951.2C66.0176 936.2 58.5176 915.8 58.5176 890V424.7C65.1176 423.5 75.6176 422 90.0176 420.2C104.418 417.8 118.218 416.6 131.418 416.6C145.218 416.6 157.218 417.8 167.418 420.2C178.218 422 187.218 425.6 194.418 431C201.618 436.4 207.018 443.9 210.618 453.5C214.218 463.1 216.018 475.7 216.018 491.3V846.8H422.118C426.318 853.4 430.218 862.4 433.818 873.8C437.418 884.6 439.218 896 439.218 908C439.218 932 434.118 949.1 423.918 959.3C413.718 968.9 400.218 973.7 383.418 973.7H142.218ZM490.665 539.9C496.665 538.1 505.965 536.3 518.565 534.5C531.765 532.7 545.265 531.8 559.065 531.8C572.265 531.8 583.965 532.7 594.165 534.5C604.965 536.3 613.965 539.9 621.165 545.3C628.365 550.7 633.765 558.2 637.365 567.8C641.565 576.8 643.665 588.8 643.665 603.8V797.3C643.665 821.9 649.665 839.6 661.665 850.4C673.665 860.6 691.065 865.7 713.865 865.7C727.665 865.7 738.765 864.5 747.165 862.1C756.165 859.7 763.065 857.3 767.865 854.9V539.9C773.865 538.1 783.165 536.3 795.765 534.5C808.965 532.7 822.465 531.8 836.265 531.8C849.465 531.8 861.165 532.7 871.365 534.5C882.165 536.3 891.165 539.9 898.365 545.3C905.565 550.7 910.965 558.2 914.565 567.8C918.765 576.8 920.865 588.8 920.865 603.8V877.4C920.865 907.4 908.265 929.9 883.065 944.9C862.065 958.1 836.865 968 807.465 974.6C778.665 981.8 747.165 985.4 712.965 985.4C680.565 985.4 650.565 981.8 622.965 974.6C595.965 967.4 572.565 956.3 552.765 941.3C532.965 926.3 517.665 907.1 506.865 883.7C496.065 859.7 490.665 830.9 490.665 797.3V539.9ZM1224.19 520.1C1248.79 520.1 1272.79 523.7 1296.19 530.9C1320.19 537.5 1340.89 547.7 1358.29 561.5C1376.29 549.5 1396.39 539.6 1418.59 531.8C1441.39 524 1468.69 520.1 1500.49 520.1C1523.29 520.1 1545.49 523.1 1567.09 529.1C1589.29 535.1 1608.79 544.7 1625.59 557.9C1642.99 570.5 1656.79 587.6 1666.99 609.2C1677.19 630.2 1682.29 656 1682.29 686.6V970.1C1676.29 971.9 1666.69 973.7 1653.49 975.5C1640.89 977.3 1627.69 978.2 1613.89 978.2C1600.69 978.2 1588.69 977.3 1577.89 975.5C1567.69 973.7 1558.99 970.1 1551.79 964.7C1544.59 959.3 1538.89 952.1 1534.69 943.1C1531.09 933.5 1529.29 921.2 1529.29 906.2V691.1C1529.29 673.1 1524.19 660.2 1513.99 652.4C1503.79 644 1489.99 639.8 1472.59 639.8C1464.19 639.8 1455.19 641.9 1445.59 646.1C1435.99 649.7 1428.79 653.6 1423.99 657.8C1424.59 660.2 1424.89 662.6 1424.89 665C1424.89 666.8 1424.89 668.6 1424.89 670.4V970.1C1418.29 971.9 1408.39 973.7 1395.19 975.5C1382.59 977.3 1369.69 978.2 1356.49 978.2C1343.29 978.2 1331.29 977.3 1320.49 975.5C1310.29 973.7 1301.59 970.1 1294.39 964.7C1287.19 959.3 1281.49 952.1 1277.29 943.1C1273.69 933.5 1271.89 921.2 1271.89 906.2V691.1C1271.89 673.1 1266.19 660.2 1254.79 652.4C1243.99 644 1230.79 639.8 1215.19 639.8C1204.39 639.8 1195.09 641.6 1187.29 645.2C1179.49 648.2 1172.89 651.2 1167.49 654.2V970.1C1161.49 971.9 1151.89 973.7 1138.69 975.5C1126.09 977.3 1112.89 978.2 1099.09 978.2C1085.89 978.2 1073.89 977.3 1063.09 975.5C1052.89 973.7 1044.19 970.1 1036.99 964.7C1029.79 959.3 1024.09 952.1 1019.89 943.1C1016.29 933.5 1014.49 921.2 1014.49 906.2V634.4C1014.49 618.2 1017.79 605.3 1024.39 595.7C1031.59 586.1 1041.19 577.1 1053.19 568.7C1073.59 554.3 1098.79 542.6 1128.79 533.6C1159.39 524.6 1191.19 520.1 1224.19 520.1ZM2668.75 748.075C2641.62 738.825 2616.95 729.575 2594.75 720.325C2572.55 710.458 2553.44 698.742 2537.4 685.175C2521.37 671.608 2508.73 655.575 2499.48 637.075C2490.85 617.958 2486.53 594.833 2486.53 567.7C2486.53 515.283 2506.57 473.35 2546.65 441.9C2587.35 410.45 2644.09 394.725 2716.85 394.725C2743.37 394.725 2768.04 396.575 2790.85 400.275C2813.67 403.975 2833.1 409.833 2849.13 417.85C2865.78 425.25 2878.73 435.117 2887.98 447.45C2897.23 459.167 2901.85 473.042 2901.85 489.075C2901.85 505.108 2898.15 518.983 2890.75 530.7C2883.35 541.8 2874.41 551.358 2863.93 559.375C2850.36 550.742 2832.17 543.342 2809.35 537.175C2786.54 530.392 2761.56 527 2734.43 527C2706.68 527 2686.33 531.008 2673.38 539.025C2660.43 546.425 2653.95 555.983 2653.95 567.7C2653.95 576.95 2657.96 584.658 2665.98 590.825C2674 596.375 2686.02 601.617 2702.05 606.55L2751.08 622.275C2809.05 640.775 2853.45 664.517 2884.28 693.5C2915.73 721.867 2931.45 760.717 2931.45 810.05C2931.45 862.467 2910.8 905.017 2869.48 937.7C2828.16 969.767 2767.42 985.8 2687.25 985.8C2658.89 985.8 2632.37 983.333 2607.7 978.4C2583.65 974.083 2562.38 967.608 2543.88 958.975C2526 949.725 2511.81 938.625 2501.33 925.675C2491.46 912.108 2486.53 896.692 2486.53 879.425C2486.53 861.542 2491.77 846.433 2502.25 834.1C2512.74 821.15 2524.15 811.283 2536.48 804.5C2553.75 818.067 2574.71 829.783 2599.38 839.65C2624.66 849.517 2652.1 854.45 2681.7 854.45C2711.92 854.45 2733.2 849.825 2745.53 840.575C2757.86 831.325 2764.03 820.533 2764.03 808.2C2764.03 795.867 2759.1 786.617 2749.23 780.45C2739.36 773.667 2725.49 767.192 2707.6 761.025L2668.75 748.075ZM3433.3 891.8C3430.3 920 3421.9 941.6 3408.1 956.6C3394.9 971.6 3375.4 979.1 3349.6 979.1C3330.4 979.1 3313.3 974.6 3298.3 965.6C3283.3 956 3267.1 940.1 3249.7 917.9L3160.6 806.3V970.1C3154 971.3 3144.1 972.8 3130.9 974.6C3118.3 977 3105.4 978.2 3092.2 978.2C3079 978.2 3067 977.3 3056.2 975.5C3046 973.7 3037.3 970.1 3030.1 964.7C3022.9 959.3 3017.2 952.1 3013 943.1C3009.4 933.5 3007.6 921.2 3007.6 906.2V385.1C3014.2 383.3 3023.8 381.5 3036.4 379.7C3049.6 377.3 3062.8 376.1 3076 376.1C3089.2 376.1 3100.9 377 3111.1 378.8C3121.9 380.6 3130.9 384.2 3138.1 389.6C3145.3 395 3150.7 402.5 3154.3 412.1C3158.5 421.1 3160.6 433.1 3160.6 448.1V685.7L3315.4 527.3C3346.6 527.3 3371.5 534.2 3390.1 548C3409.3 561.8 3418.9 579.2 3418.9 600.2C3418.9 609.2 3417.4 617.6 3414.4 625.4C3411.4 632.6 3406.6 640.1 3400 647.9C3394 655.7 3385.9 664.1 3375.7 673.1C3366.1 681.5 3354.7 691.4 3341.5 702.8L3289.3 747.8L3433.3 891.8ZM3558.48 859.4C3551.88 844.4 3544.68 827.6 3536.88 809C3529.68 790.4 3521.88 769.1 3513.48 745.1C3505.68 721.1 3497.28 693.8 3488.28 663.2C3479.88 632 3470.88 596.3 3461.28 556.1C3469.68 547.7 3480.78 540.5 3494.58 534.5C3508.98 527.9 3524.58 524.6 3541.38 524.6C3562.38 524.6 3579.78 529.1 3593.58 538.1C3607.38 546.5 3617.58 562.7 3624.18 586.7L3695.28 834.2H3698.88C3706.08 813.8 3712.98 791.6 3719.58 767.6C3726.78 743.6 3733.68 719 3740.28 693.8C3746.88 668 3752.88 642.5 3758.28 617.3C3764.28 591.5 3769.38 566.3 3773.58 541.7C3795.18 530.3 3818.88 524.6 3844.68 524.6C3865.68 524.6 3883.08 529.1 3896.88 538.1C3910.68 547.1 3917.58 562.7 3917.58 584.9C3917.58 601.1 3915.48 620 3911.28 641.6C3907.08 662.6 3901.38 685.1 3894.18 709.1C3887.58 733.1 3879.48 758 3869.88 783.8C3860.88 809 3851.28 833.9 3841.08 858.5C3830.88 883.1 3820.38 906.5 3809.58 928.7C3798.78 950.3 3788.28 969.8 3778.08 987.2C3761.28 1016.6 3745.68 1040.6 3731.28 1059.2C3716.88 1077.8 3703.08 1092.2 3689.88 1102.4C3676.68 1113.2 3663.48 1120.4 3650.28 1124C3637.08 1128.2 3623.28 1130.3 3608.88 1130.3C3583.68 1130.3 3563.28 1122.8 3547.68 1107.8C3532.08 1092.8 3522.78 1073.3 3519.78 1049.3C3538.98 1034.3 3558.18 1017.5 3577.38 998.9C3596.58 980.9 3613.98 962.3 3629.58 943.1C3619.38 940.1 3608.28 933.2 3596.28 922.4C3584.88 911 3572.28 890 3558.48 859.4Z" fill="white"/>
<path fill-rule="evenodd" clip-rule="evenodd" d="M1918.87 984.136C1909.11 990.531 1911.37 1007.2 1922.46 1010.53C1926.79 1011.84 1940.17 1011.05 1953.3 1008.71C1996.39 1001.05 2035.53 971.366 2055.67 931.071C2062.58 917.24 2068.72 895.211 2068.72 884.248C2068.72 872.888 2055.77 865.891 2046.45 872.22C2041.92 875.303 2040.83 877.87 2037.11 894.328C2034.13 907.536 2025.73 925.724 2017.76 936.246C2006.21 951.497 1987.49 965.998 1970.34 972.971C1959.05 977.567 1948.53 979.968 1934.17 981.23C1926.56 981.898 1920.54 983.042 1918.87 984.136ZM2226.08 996.487C2226.08 1002.59 2231.26 1009.27 2237.28 1010.95C2243.33 1012.63 2269.82 1009.04 2284.5 1004.55C2321.56 993.209 2356.35 961.83 2372 925.632C2392.09 879.151 2386.71 826.884 2357.54 785.114C2345.33 767.638 2324.04 749.51 2303.93 739.454C2290.41 732.697 2268.08 726.399 2257.65 726.399C2248.22 726.399 2242.52 732.179 2242.52 741.724C2242.52 745.683 2243.25 747.333 2246.44 750.521C2248.6 752.678 2251.64 754.69 2253.19 754.991C2269.53 758.149 2275.16 759.572 2282.04 762.286C2317.89 776.416 2344.5 807.952 2352.26 845.507C2354.66 857.133 2354.74 879.311 2352.42 890.213C2341.61 940.998 2300.86 976.996 2249.5 981.124C2242.38 981.697 2235.53 982.915 2233.48 983.97C2229.74 985.904 2226.08 992.099 2226.08 996.487ZM1820.15 963.08C1825.13 968.494 1829.58 972.223 1831.9 972.908C1839.14 975.049 1845.84 971.822 1849.52 964.416C1852.62 958.177 1851.3 954.39 1842.27 943.553C1828.18 926.645 1820.42 911.255 1816.07 891.59C1814.08 882.617 1813.78 878.074 1814.26 864.379C1814.89 846.485 1816.6 838.234 1822.67 823.802C1833.32 798.492 1853.15 777.927 1878.62 765.778C1888.14 761.24 1896.57 758.73 1914.78 755.02C1916.34 754.703 1919.38 752.678 1921.54 750.521C1924.72 747.333 1925.46 745.683 1925.46 741.724C1925.46 732.179 1919.75 726.399 1910.33 726.399C1899.9 726.399 1877.57 732.697 1864.05 739.454C1830.76 756.092 1804.85 785.283 1792.24 820.343C1774.69 869.167 1785.72 925.595 1820.15 963.08ZM2119.56 943.879C2126.33 954.711 2138.35 969.008 2143.14 971.928C2147.84 974.794 2154.09 974.779 2158.48 971.889C2163.03 968.889 2164.92 965.241 2164.97 959.376C2165.02 954.075 2163.89 952.207 2152.88 939.326C2141.2 925.656 2131.49 902.922 2128.05 881.202C2127.58 878.262 2126.05 875.738 2123.25 873.276C2119.81 870.259 2118.15 869.663 2113.19 869.663C2107.94 869.663 2106.75 870.154 2103.08 873.82C2098.93 877.977 2098.93 877.977 2099.6 887.031C2100.88 904.166 2108.75 926.579 2119.56 943.879ZM1892.77 910.506C1900.5 916.261 1903.18 917.67 1911.37 920.303C1924.25 924.445 1941.7 922.575 1953.64 915.773C1956.55 914.117 1973.19 898.682 1990.63 881.473C2027 845.577 2033.6 840.6 2054.01 833.659C2078.52 825.324 2107.29 828.082 2130.85 841.021C2142.47 847.406 2145.43 849.994 2178.52 882.644C2195.31 899.216 2211.43 914.144 2214.33 915.818C2242.27 931.905 2280.18 918.089 2291.93 887.541C2297.29 873.614 2295.9 854.016 2288.68 841.509C2287 838.587 2271.78 822.192 2254.88 805.077C2217.31 767.049 2211.01 758.257 2204.82 735.207C2201.27 722 2201.27 700.267 2204.82 687.061C2211.01 664.01 2217.31 655.218 2254.88 617.19C2271.78 600.075 2286.99 583.693 2288.67 580.787C2304.77 552.886 2290.95 514.944 2260.4 503.193C2246.46 497.834 2226.85 499.219 2214.36 506.444C2211.44 508.134 2194.78 523.588 2177.34 540.785C2139.62 577.988 2132.88 582.902 2110.18 589.75C2101.19 592.463 2097.77 592.871 2083.99 592.871C2070.21 592.871 2066.78 592.463 2057.79 589.75C2035.02 582.88 2028.37 578.015 1990.04 540.171C1971.6 521.959 1955.74 507.269 1953.05 505.914C1926.21 492.359 1894.01 501.503 1879.35 526.844C1870.56 542.042 1870.33 563.482 1878.77 580.2C1880.12 582.883 1894.81 598.745 1913.03 617.19C1951.23 655.888 1956.85 663.718 1963.18 687.061C1966.76 700.287 1966.76 721.98 1963.18 735.207C1956.87 758.488 1951.18 766.443 1913.63 804.49C1896.42 821.928 1880.99 838.574 1879.34 841.48C1866.63 863.862 1872.82 895.646 1892.77 910.506ZM1987.26 665.209L1987.22 665.118C1987.3 665.101 1987.39 665.084 1987.47 665.066C1987.43 665.177 1987.38 665.288 1987.33 665.399L1987.26 665.209ZM1792.24 601.924C1809.05 648.679 1848.46 683.515 1896.44 694.033C1906.64 696.269 1914.49 696.238 1918.37 693.947C1925.52 689.719 1927.52 680.489 1922.8 673.478C1919.83 669.074 1917.18 667.964 1900.8 664.25C1860.37 655.088 1828 623.188 1816.71 581.374C1813.4 569.109 1813.66 538.019 1817.18 525.262C1830.16 478.171 1870.07 445.034 1918.47 441.143C1932.76 439.995 1937.24 438.173 1939.98 432.407C1942.39 427.335 1942.4 424.254 1940.04 419.275C1936.35 411.5 1930.56 409.835 1913.68 411.693C1889.32 414.373 1867.38 422.072 1848.35 434.616C1834.95 443.45 1816.3 462.097 1807.47 475.498C1783 512.626 1777.26 560.257 1792.24 601.924ZM2244.81 673.925C2240.75 680.575 2242.79 689.7 2249.28 693.894C2256.07 698.288 2280.53 693.629 2301.1 684.026C2336.43 667.532 2364.46 636.137 2376.79 599.235C2393.07 550.556 2381.2 494.451 2347.03 458.518C2341.31 452.504 2339.31 450.396 2336.88 449.657C2335.57 449.259 2334.14 449.26 2331.94 449.261C2326.36 449.266 2325.21 449.715 2321.67 453.259C2318.17 456.753 2317.67 457.997 2317.67 463.225C2317.67 468.741 2318.15 469.765 2323.98 476.63C2337.83 492.958 2345.5 506.82 2350.78 525.03C2353.12 533.145 2353.49 537.002 2353.48 553.778C2353.47 569.051 2353 574.895 2351.25 581.374C2339.68 624.32 2307.64 655.207 2264.61 664.9C2249.12 668.391 2247.82 668.981 2244.81 673.925ZM2037.11 527.944C2040.82 544.329 2041.93 546.975 2046.33 549.943C2053.46 554.743 2062.58 552.666 2066.96 545.245C2072.44 535.973 2062.92 501.631 2048.43 478.388C2041.61 467.448 2028.61 452.185 2024.14 449.875C2013.18 444.209 2000.16 453.753 2002.55 465.698C2002.94 467.629 2006.41 472.78 2010.28 477.146C2014.15 481.511 2018.88 487.355 2020.8 490.133C2027.04 499.149 2034.5 516.465 2037.11 527.944ZM2101.02 524.395C2097.76 539.899 2099.34 547.088 2106.83 550.782C2111.95 553.31 2117.09 553.013 2121.69 549.924C2126.02 547.01 2126.9 544.878 2130.92 527.357C2133.8 514.849 2142.43 496.332 2150.15 486.129C2170.26 459.534 2199.98 443.55 2233.99 441.042C2247.26 440.064 2250.68 438.608 2253.78 432.621C2256.35 427.644 2255.42 419.531 2251.83 415.713C2247.63 411.243 2241.9 410.25 2228.33 411.642C2207.6 413.77 2193.64 417.855 2175.58 427.08C2137.27 446.652 2109.84 482.452 2101.02 524.395Z" fill="url(#paint0_linear_21_47)"/>
<defs>
<linearGradient id="paint0_linear_21_47" x1="2384" y1="411" x2="1784" y2="1011" gradientUnits="userSpaceOnUse">
<stop offset="0.0833333" stop-color="#00FE56"/>
<stop offset="0.901042" stop-color="#58C0E0"/>
</linearGradient>
</defs>
</svg>
