<svg width="3939" height="1421" viewBox="0 0 3939 1421" fill="none" xmlns="http://www.w3.org/2000/svg">
<path d="M142.218 973.7C116.418 973.7 96.0176 966.2 81.0176 951.2C66.0176 936.2 58.5176 915.8 58.5176 890V424.7C65.1176 423.5 75.6176 422 90.0176 420.2C104.418 417.8 118.218 416.6 131.418 416.6C145.218 416.6 157.218 417.8 167.418 420.2C178.218 422 187.218 425.6 194.418 431C201.618 436.4 207.018 443.9 210.618 453.5C214.218 463.1 216.018 475.7 216.018 491.3V846.8H422.118C426.318 853.4 430.218 862.4 433.818 873.8C437.418 884.6 439.218 896 439.218 908C439.218 932 434.118 949.1 423.918 959.3C413.718 968.9 400.218 973.7 383.418 973.7H142.218ZM490.665 539.9C496.665 538.1 505.965 536.3 518.565 534.5C531.765 532.7 545.265 531.8 559.065 531.8C572.265 531.8 583.965 532.7 594.165 534.5C604.965 536.3 613.965 539.9 621.165 545.3C628.365 550.7 633.765 558.2 637.365 567.8C641.565 576.8 643.665 588.8 643.665 603.8V797.3C643.665 821.9 649.665 839.6 661.665 850.4C673.665 860.6 691.065 865.7 713.865 865.7C727.665 865.7 738.765 864.5 747.165 862.1C756.165 859.7 763.065 857.3 767.865 854.9V539.9C773.865 538.1 783.165 536.3 795.765 534.5C808.965 532.7 822.465 531.8 836.265 531.8C849.465 531.8 861.165 532.7 871.365 534.5C882.165 536.3 891.165 539.9 898.365 545.3C905.565 550.7 910.965 558.2 914.565 567.8C918.765 576.8 920.865 588.8 920.865 603.8V877.4C920.865 907.4 908.265 929.9 883.065 944.9C862.065 958.1 836.865 968 807.465 974.6C778.665 981.8 747.165 985.4 712.965 985.4C680.565 985.4 650.565 981.8 622.965 974.6C595.965 967.4 572.565 956.3 552.765 941.3C532.965 926.3 517.665 907.1 506.865 883.7C496.065 859.7 490.665 830.9 490.665 797.3V539.9ZM1224.19 520.1C1248.79 520.1 1272.79 523.7 1296.19 530.9C1320.19 537.5 1340.89 547.7 1358.29 561.5C1376.29 549.5 1396.39 539.6 1418.59 531.8C1441.39 524 1468.69 520.1 1500.49 520.1C1523.29 520.1 1545.49 523.1 1567.09 529.1C1589.29 535.1 1608.79 544.7 1625.59 557.9C1642.99 570.5 1656.79 587.6 1666.99 609.2C1677.19 630.2 1682.29 656 1682.29 686.6V970.1C1676.29 971.9 1666.69 973.7 1653.49 975.5C1640.89 977.3 1627.69 978.2 1613.89 978.2C1600.69 978.2 1588.69 977.3 1577.89 975.5C1567.69 973.7 1558.99 970.1 1551.79 964.7C1544.59 959.3 1538.89 952.1 1534.69 943.1C1531.09 933.5 1529.29 921.2 1529.29 906.2V691.1C1529.29 673.1 1524.19 660.2 1513.99 652.4C1503.79 644 1489.99 639.8 1472.59 639.8C1464.19 639.8 1455.19 641.9 1445.59 646.1C1435.99 649.7 1428.79 653.6 1423.99 657.8C1424.59 660.2 1424.89 662.6 1424.89 665C1424.89 666.8 1424.89 668.6 1424.89 670.4V970.1C1418.29 971.9 1408.39 973.7 1395.19 975.5C1382.59 977.3 1369.69 978.2 1356.49 978.2C1343.29 978.2 1331.29 977.3 1320.49 975.5C1310.29 973.7 1301.59 970.1 1294.39 964.7C1287.19 959.3 1281.49 952.1 1277.29 943.1C1273.69 933.5 1271.89 921.2 1271.89 906.2V691.1C1271.89 673.1 1266.19 660.2 1254.79 652.4C1243.99 644 1230.79 639.8 1215.19 639.8C1204.39 639.8 1195.09 641.6 1187.29 645.2C1179.49 648.2 1172.89 651.2 1167.49 654.2V970.1C1161.49 971.9 1151.89 973.7 1138.69 975.5C1126.09 977.3 1112.89 978.2 1099.09 978.2C1085.89 978.2 1073.89 977.3 1063.09 975.5C1052.89 973.7 1044.19 970.1 1036.99 964.7C1029.79 959.3 1024.09 952.1 1019.89 943.1C1016.29 933.5 1014.49 921.2 1014.49 906.2V634.4C1014.49 618.2 1017.79 605.3 1024.39 595.7C1031.59 586.1 1041.19 577.1 1053.19 568.7C1073.59 554.3 1098.79 542.6 1128.79 533.6C1159.39 524.6 1191.19 520.1 1224.19 520.1ZM2668.75 748.075C2641.62 738.825 2616.95 729.575 2594.75 720.325C2572.55 710.458 2553.44 698.742 2537.4 685.175C2521.37 671.608 2508.73 655.575 2499.48 637.075C2490.85 617.958 2486.53 594.833 2486.53 567.7C2486.53 515.283 2506.57 473.35 2546.65 441.9C2587.35 410.45 2644.09 394.725 2716.85 394.725C2743.37 394.725 2768.04 396.575 2790.85 400.275C2813.67 403.975 2833.1 409.833 2849.13 417.85C2865.78 425.25 2878.73 435.117 2887.98 447.45C2897.23 459.167 2901.85 473.042 2901.85 489.075C2901.85 505.108 2898.15 518.983 2890.75 530.7C2883.35 541.8 2874.41 551.358 2863.93 559.375C2850.36 550.742 2832.17 543.342 2809.35 537.175C2786.54 530.392 2761.56 527 2734.43 527C2706.68 527 2686.33 531.008 2673.38 539.025C2660.43 546.425 2653.95 555.983 2653.95 567.7C2653.95 576.95 2657.96 584.658 2665.98 590.825C2674 596.375 2686.02 601.617 2702.05 606.55L2751.08 622.275C2809.05 640.775 2853.45 664.517 2884.28 693.5C2915.73 721.867 2931.45 760.717 2931.45 810.05C2931.45 862.467 2910.8 905.017 2869.48 937.7C2828.16 969.767 2767.42 985.8 2687.25 985.8C2658.89 985.8 2632.37 983.333 2607.7 978.4C2583.65 974.083 2562.38 967.608 2543.88 958.975C2526 949.725 2511.81 938.625 2501.33 925.675C2491.46 912.108 2486.53 896.692 2486.53 879.425C2486.53 861.542 2491.77 846.433 2502.25 834.1C2512.74 821.15 2524.15 811.283 2536.48 804.5C2553.75 818.067 2574.71 829.783 2599.38 839.65C2624.66 849.517 2652.1 854.45 2681.7 854.45C2711.92 854.45 2733.2 849.825 2745.53 840.575C2757.86 831.325 2764.03 820.533 2764.03 808.2C2764.03 795.867 2759.1 786.617 2749.23 780.45C2739.36 773.667 2725.49 767.192 2707.6 761.025L2668.75 748.075ZM3433.3 891.8C3430.3 920 3421.9 941.6 3408.1 956.6C3394.9 971.6 3375.4 979.1 3349.6 979.1C3330.4 979.1 3313.3 974.6 3298.3 965.6C3283.3 956 3267.1 940.1 3249.7 917.9L3160.6 806.3V970.1C3154 971.3 3144.1 972.8 3130.9 974.6C3118.3 977 3105.4 978.2 3092.2 978.2C3079 978.2 3067 977.3 3056.2 975.5C3046 973.7 3037.3 970.1 3030.1 964.7C3022.9 959.3 3017.2 952.1 3013 943.1C3009.4 933.5 3007.6 921.2 3007.6 906.2V385.1C3014.2 383.3 3023.8 381.5 3036.4 379.7C3049.6 377.3 3062.8 376.1 3076 376.1C3089.2 376.1 3100.9 377 3111.1 378.8C3121.9 380.6 3130.9 384.2 3138.1 389.6C3145.3 395 3150.7 402.5 3154.3 412.1C3158.5 421.1 3160.6 433.1 3160.6 448.1V685.7L3315.4 527.3C3346.6 527.3 3371.5 534.2 3390.1 548C3409.3 561.8 3418.9 579.2 3418.9 600.2C3418.9 609.2 3417.4 617.6 3414.4 625.4C3411.4 632.6 3406.6 640.1 3400 647.9C3394 655.7 3385.9 664.1 3375.7 673.1C3366.1 681.5 3354.7 691.4 3341.5 702.8L3289.3 747.8L3433.3 891.8ZM3558.48 859.4C3551.88 844.4 3544.68 827.6 3536.88 809C3529.68 790.4 3521.88 769.1 3513.48 745.1C3505.68 721.1 3497.28 693.8 3488.28 663.2C3479.88 632 3470.88 596.3 3461.28 556.1C3469.68 547.7 3480.78 540.5 3494.58 534.5C3508.98 527.9 3524.58 524.6 3541.38 524.6C3562.38 524.6 3579.78 529.1 3593.58 538.1C3607.38 546.5 3617.58 562.7 3624.18 586.7L3695.28 834.2H3698.88C3706.08 813.8 3712.98 791.6 3719.58 767.6C3726.78 743.6 3733.68 719 3740.28 693.8C3746.88 668 3752.88 642.5 3758.28 617.3C3764.28 591.5 3769.38 566.3 3773.58 541.7C3795.18 530.3 3818.88 524.6 3844.68 524.6C3865.68 524.6 3883.08 529.1 3896.88 538.1C3910.68 547.1 3917.58 562.7 3917.58 584.9C3917.58 601.1 3915.48 620 3911.28 641.6C3907.08 662.6 3901.38 685.1 3894.18 709.1C3887.58 733.1 3879.48 758 3869.88 783.8C3860.88 809 3851.28 833.9 3841.08 858.5C3830.88 883.1 3820.38 906.5 3809.58 928.7C3798.78 950.3 3788.28 969.8 3778.08 987.2C3761.28 1016.6 3745.68 1040.6 3731.28 1059.2C3716.88 1077.8 3703.08 1092.2 3689.88 1102.4C3676.68 1113.2 3663.48 1120.4 3650.28 1124C3637.08 1128.2 3623.28 1130.3 3608.88 1130.3C3583.68 1130.3 3563.28 1122.8 3547.68 1107.8C3532.08 1092.8 3522.78 1073.3 3519.78 1049.3C3538.98 1034.3 3558.18 1017.5 3577.38 998.9C3596.58 980.9 3613.98 962.3 3629.58 943.1C3619.38 940.1 3608.28 933.2 3596.28 922.4C3584.88 911 3572.28 890 3558.48 859.4Z" fill="black"/>
<path fill-rule="evenodd" clip-rule="evenodd" d="M1883.87 984.136C1874.11 990.531 1876.37 1007.2 1887.46 1010.53C1891.79 1011.84 1905.17 1011.05 1918.3 1008.71C1961.39 1001.05 2000.53 971.366 2020.67 931.071C2027.58 917.24 2033.72 895.211 2033.72 884.248C2033.72 872.888 2020.77 865.891 2011.45 872.22C2006.92 875.303 2005.83 877.87 2002.11 894.328C1999.13 907.536 1990.73 925.724 1982.76 936.246C1971.21 951.497 1952.49 965.998 1935.34 972.971C1924.05 977.567 1913.53 979.968 1899.17 981.23C1891.56 981.898 1885.54 983.042 1883.87 984.136ZM2191.08 996.487C2191.08 1002.59 2196.26 1009.27 2202.28 1010.95C2208.33 1012.63 2234.82 1009.04 2249.5 1004.55C2286.56 993.209 2321.35 961.83 2337 925.632C2357.09 879.151 2351.71 826.884 2322.54 785.114C2310.33 767.638 2289.04 749.51 2268.93 739.454C2255.41 732.697 2233.08 726.399 2222.65 726.399C2213.22 726.399 2207.52 732.179 2207.52 741.724C2207.52 745.683 2208.25 747.333 2211.44 750.521C2213.6 752.678 2216.64 754.69 2218.19 754.991C2234.53 758.149 2240.16 759.572 2247.04 762.286C2282.89 776.416 2309.5 807.952 2317.26 845.507C2319.66 857.133 2319.74 879.311 2317.42 890.213C2306.61 940.998 2265.86 976.996 2214.5 981.124C2207.38 981.697 2200.53 982.915 2198.48 983.97C2194.74 985.904 2191.08 992.099 2191.08 996.487ZM1785.15 963.08C1790.13 968.494 1794.58 972.223 1796.9 972.908C1804.14 975.049 1810.84 971.822 1814.52 964.416C1817.62 958.177 1816.3 954.39 1807.27 943.553C1793.18 926.645 1785.42 911.255 1781.07 891.59C1779.08 882.617 1778.78 878.074 1779.26 864.379C1779.89 846.485 1781.6 838.234 1787.67 823.802C1798.32 798.492 1818.15 777.927 1843.62 765.778C1853.14 761.24 1861.57 758.73 1879.78 755.02C1881.34 754.703 1884.38 752.678 1886.54 750.521C1889.72 747.333 1890.46 745.683 1890.46 741.724C1890.46 732.179 1884.75 726.399 1875.33 726.399C1864.9 726.399 1842.57 732.697 1829.05 739.454C1795.76 756.092 1769.85 785.283 1757.24 820.343C1739.69 869.167 1750.72 925.595 1785.15 963.08ZM2084.56 943.879C2091.33 954.711 2103.35 969.008 2108.14 971.928C2112.84 974.794 2119.09 974.779 2123.48 971.889C2128.03 968.889 2129.92 965.241 2129.97 959.376C2130.02 954.075 2128.89 952.207 2117.88 939.326C2106.2 925.656 2096.49 902.922 2093.05 881.202C2092.58 878.262 2091.05 875.738 2088.25 873.276C2084.81 870.259 2083.15 869.663 2078.19 869.663C2072.94 869.663 2071.75 870.154 2068.08 873.82C2063.93 877.977 2063.93 877.977 2064.6 887.031C2065.88 904.166 2073.75 926.579 2084.56 943.879ZM1857.77 910.506C1865.5 916.261 1868.18 917.67 1876.37 920.303C1889.25 924.445 1906.7 922.575 1918.64 915.773C1921.55 914.117 1938.19 898.682 1955.63 881.473C1992 845.577 1998.6 840.6 2019.01 833.659C2043.52 825.324 2072.29 828.082 2095.85 841.021C2107.47 847.406 2110.43 849.994 2143.52 882.644C2160.31 899.216 2176.43 914.144 2179.33 915.818C2207.27 931.905 2245.18 918.089 2256.93 887.541C2262.29 873.614 2260.9 854.016 2253.68 841.509C2252 838.587 2236.78 822.192 2219.88 805.077C2182.31 767.049 2176.01 758.257 2169.82 735.207C2166.27 722 2166.27 700.267 2169.82 687.061C2176.01 664.01 2182.31 655.218 2219.88 617.19C2236.78 600.075 2251.99 583.693 2253.67 580.787C2269.77 552.886 2255.95 514.944 2225.4 503.193C2211.46 497.834 2191.85 499.219 2179.36 506.444C2176.44 508.134 2159.78 523.588 2142.34 540.785C2104.62 577.988 2097.88 582.902 2075.18 589.75C2066.19 592.463 2062.77 592.871 2048.99 592.871C2035.21 592.871 2031.78 592.463 2022.79 589.75C2000.02 582.88 1993.37 578.015 1955.04 540.171C1936.6 521.959 1920.74 507.269 1918.05 505.914C1891.21 492.359 1859.01 501.503 1844.35 526.844C1835.56 542.042 1835.33 563.482 1843.77 580.2C1845.12 582.883 1859.81 598.745 1878.03 617.19C1916.23 655.888 1921.85 663.718 1928.18 687.061C1931.76 700.287 1931.76 721.98 1928.18 735.207C1921.87 758.488 1916.18 766.443 1878.63 804.49C1861.42 821.928 1845.99 838.574 1844.34 841.48C1831.63 863.862 1837.82 895.646 1857.77 910.506ZM1952.26 665.209L1952.22 665.118C1952.3 665.101 1952.39 665.084 1952.47 665.066C1952.43 665.177 1952.38 665.288 1952.33 665.399L1952.26 665.209ZM1757.24 601.924C1774.05 648.679 1813.46 683.515 1861.44 694.033C1871.64 696.269 1879.49 696.238 1883.37 693.947C1890.52 689.719 1892.52 680.489 1887.8 673.478C1884.83 669.074 1882.18 667.964 1865.8 664.25C1825.37 655.088 1793 623.188 1781.71 581.374C1778.4 569.109 1778.66 538.019 1782.18 525.262C1795.16 478.171 1835.07 445.034 1883.47 441.143C1897.76 439.995 1902.24 438.173 1904.98 432.407C1907.39 427.335 1907.4 424.254 1905.04 419.275C1901.35 411.5 1895.56 409.835 1878.68 411.693C1854.32 414.373 1832.38 422.072 1813.35 434.616C1799.95 443.45 1781.3 462.097 1772.47 475.498C1748 512.626 1742.26 560.257 1757.24 601.924ZM2209.81 673.925C2205.75 680.575 2207.79 689.7 2214.28 693.894C2221.07 698.288 2245.53 693.629 2266.1 684.026C2301.43 667.532 2329.46 636.137 2341.79 599.235C2358.07 550.556 2346.2 494.451 2312.03 458.518C2306.31 452.504 2304.31 450.396 2301.88 449.657C2300.57 449.259 2299.14 449.26 2296.94 449.261C2291.36 449.266 2290.21 449.715 2286.67 453.259C2283.17 456.753 2282.67 457.997 2282.67 463.225C2282.67 468.741 2283.15 469.765 2288.98 476.63C2302.83 492.958 2310.5 506.82 2315.78 525.03C2318.12 533.145 2318.49 537.002 2318.48 553.778C2318.47 569.051 2318 574.895 2316.25 581.374C2304.68 624.32 2272.64 655.207 2229.61 664.9C2214.12 668.391 2212.82 668.981 2209.81 673.925ZM2002.11 527.944C2005.82 544.329 2006.93 546.975 2011.33 549.943C2018.46 554.743 2027.58 552.666 2031.96 545.245C2037.44 535.973 2027.92 501.631 2013.43 478.388C2006.61 467.448 1993.61 452.185 1989.14 449.875C1978.18 444.209 1965.16 453.753 1967.55 465.698C1967.94 467.629 1971.41 472.78 1975.28 477.146C1979.15 481.511 1983.88 487.355 1985.8 490.133C1992.04 499.149 1999.5 516.465 2002.11 527.944ZM2066.02 524.395C2062.76 539.899 2064.34 547.088 2071.83 550.782C2076.95 553.31 2082.09 553.013 2086.69 549.924C2091.02 547.01 2091.9 544.878 2095.92 527.357C2098.8 514.849 2107.43 496.332 2115.15 486.129C2135.26 459.534 2164.98 443.55 2198.99 441.042C2212.26 440.064 2215.68 438.608 2218.78 432.621C2221.35 427.644 2220.42 419.531 2216.83 415.713C2212.63 411.243 2206.9 410.25 2193.33 411.642C2172.6 413.77 2158.64 417.855 2140.58 427.08C2102.27 446.652 2074.84 482.452 2066.02 524.395Z" fill="black"/>
</svg>
